<svg xmlns="http://www.w3.org/2000/svg" width="12" height="20" viewBox="0 0 12 20" id="left">
  <g id="Page-1" fill="none" fill-rule="evenodd" stroke="none" stroke-width="1">
    <g id="Asset-1" fill="#000100" fill-rule="nonzero" transform="translate(-14 -8)">
      <g id="Lager_13" transform="translate(14 8)">
        <path id="Shape" d="M5.909 10.681a1.987 1.987 0 0 1-.278-.732c.004-.253.103-.496.278-.679l5.517-5.732c.761-.81.766-2.072.01-2.887l-.028-.03A1.959 1.959 0 0 0 8.554.613L.287 9.226A1.08 1.08 0 0 0 0 9.949c.044.275.141.538.287.775l8.267 8.665a1.959 1.959 0 0 0 2.854-.012l.028-.036a2.133 2.133 0 0 0-.01-2.9l-5.517-5.76z"></path>
      </g>
    </g>
  </g>
</svg>
